<svg xmlns="http://www.w3.org/2000/svg" width="24" height="24" fill="none"><g clip-path="url(#a)"><path fill="#2775CA" d="M12 0c6.65 0 12 5.35 12 12 0 1.475-.264 2.885-.746 4.187a5.142 5.142 0 1 0-7.066 7.066A12.042 12.042 0 0 1 12 24C5.35 24 0 18.65 0 12S5.35 0 12 0Z"/><path fill="#fff" d="M9.475 3.351c.2.05.3.2.3.4v.7c0 .25-.1.4-.3.5-2.05.75-3.7 2.35-4.45 4.45-1.45 3.85.55 8.2 4.45 9.6.15.1.3.3.3.45v.7c0 .1 0 .15-.05.2-.05.2-.25.3-.45.2-2.8-.9-4.95-3.05-5.85-5.85-1.5-4.75 1.1-9.8 5.85-11.3.05-.05.15-.05.2-.05Zm4.848.25c.05-.2.25-.3.45-.2 2.75.9 4.95 3.05 5.85 5.9a9.015 9.015 0 0 1 .184 4.796 5.111 5.111 0 0 0-1.519-.364c.875-3.615-1.105-7.436-4.714-8.732-.15-.1-.3-.3-.3-.5v-.7c0-.1 0-.15.05-.2Z"/><path fill="#fff" d="M15.348 13.774c0-1.75-1.05-2.35-3.15-2.6-1.5-.2-1.8-.6-1.8-1.3 0-.7.5-1.15 1.5-1.15.9 0 1.4.3 1.65 1.05.05.15.2.25.35.25h.8c.2 0 .35-.15.35-.35v-.05c-.2-1.1-1.1-1.95-2.25-2.05v-1.2c0-.2-.15-.35-.4-.4h-.75c-.2 0-.35.15-.4.4v1.15c-1.5.2-2.45 1.2-2.45 2.45 0 1.65 1 2.3 3.1 2.55 1.4.25 1.85.55 1.85 1.35s-.7 1.35-1.65 1.35c-1.3 0-1.75-.55-1.9-1.3-.05-.2-.2-.3-.35-.3h-.85c-.2 0-.35.15-.35.35v.05c.2 1.25 1 2.15 2.65 2.4v1.2c0 .2.15.35.4.4h.75c.2 0 .35-.15.4-.4v-1.2c1.5-.25 2.5-1.3 2.5-2.65Z"/><path fill="url(#b)" d="M18.857 22.714a3.857 3.857 0 1 0 0-7.714 3.857 3.857 0 0 0 0 7.714Z"/><path fill="#fff" d="M19.609 19.215h2.072c.08 0 .096-.109.023-.142l-2.095-.954v-2.08c0-.078-.104-.104-.14-.035l-.86 1.659-.955-.439c-.092-.037-.148.038-.117.102l.57 1.174h-2.072c-.08 0-.096.108-.024.141l2.095.955v2.08c0 .077.104.103.14.034l.861-1.658.955.438c.091.037.147-.038.116-.101l-.569-1.174Z"/></g><defs><linearGradient id="b" x1="23.236" x2="14.74" y1="18.4" y2="18.254" gradientUnits="userSpaceOnUse"><stop stop-color="#FFCD4D"/><stop offset="1" stop-color="#FA43BD"/></linearGradient><clipPath id="a"><path fill="#fff" d="M0 0h24v24H0z"/></clipPath></defs></svg>